{"title":"Monsters.University.2013.HDTS XVID AC3 BHRG","uid":8902370,"size":1406867385,"categoryP":"video","categoryS":"movies","magnet":"?xt=urn:btih:6163081dc050c19da08df16e688dace0a9ac64b7&amp;dn=Monsters.University.2013.HDTS+XVID+AC3+BHRG&amp;tr=udp%3A%2F%2Ftracker.openbittorrent.com%3A80&amp;tr=udp%3A%2F%2Fopen.demonii.com%3A1337&amp;tr=udp%3A%2F%2Ftracker.coppersurfer.tk%3A6969&amp;tr=udp%3A%2F%2Fexodus.desync.com%3A6969","seeders":5,"leechers":0,"uploader":"TeX","files":3,"time":1378834863,"description":"[img]http://lookpic.com/O/i2/639/pCtZLEKl.jpeg[/img]\n\nFormat : AVI\nFormat/Info : Audio Video Interleave\nFile size : 1.30 GiB\nDuration : 1h 34mn\nOverall bit rate : 1 959 Kbps\nWriting library : VirtualDub build 30091/release\n\nVideo\nID : 0\nFormat : MPEG-4 Visual\nFormat profile : Advanced Simple@L5\nFormat settings, BVOP : 2\nFormat settings, QPel : No\nFormat settings, GMC : No warppoints\nFormat settings, Matrix : Default (H.263)\nMuxing mode : Packed bitstream\nCodec ID : XVID\nCodec ID/Hint : XviD\nDuration : 1h 34mn\nBit rate : 1 693 Kbps\nWidth : 720 pixels\nHeight : 384 pixels\nDisplay aspect ratio : 1.85:1\nFrame rate : 25.000 fps\nColor space : YUV\nChroma subsampling : 4:2:0\nBit depth : 8 bits\nScan type : Progressive\nCompression mode : Lossy\nBits/(Pixel*Frame) : 0.245\nStream size : 1.12 GiB (86%)\nWriting library : XviD 1.2.1 (UTC 2008-12-04)\n\nAudio\nID : 1\nFormat : AC-3\nFormat/Info : Audio Coding 3\nMode extension : CM (complete main)\nFormat settings, Endianness : Big\nCodec ID : 2000\nDuration : 1h 34mn\nBit rate mode : Constant\nBit rate : 256 Kbps\nChannel(s) : 6 channels\nChannel positions : Front: L C R, Side: L R, LFE\nSampling rate : 48.0 KHz\nBit depth : 16 bits\nCompression mode : Lossy\nStream size : 174 MiB (13%)\n\n[img]http://www.ultraimg.com/images/NBpGm.png[/img]\n[img]http://www.ultraimg.com/images/yIYg6.png[/img]\n[img]http://www.ultraimg.com/images/jSzVs.png[/img]","torrent":{"xt":"urn:btih:6163081dc050c19da08df16e688dace0a9ac64b7","amp;dn":"Monsters.University.2013.HDTS+XVID+AC3+BHRG","amp;tr":["udp%3A%2F%2Ftracker.openbittorrent.com%3A80","udp%3A%2F%2Fopen.demonii.com%3A1337","udp%3A%2F%2Ftracker.coppersurfer.tk%3A6969","udp%3A%2F%2Fexodus.desync.com%3A6969"],"infoHash":"6163081dc050c19da08df16e688dace0a9ac64b7","infoHashBuffer":{"type":"Buffer","data":[97,99,8,29,192,80,193,157,160,141,241,110,104,141,172,224,169,172,100,183]},"announce":[],"urlList":[]}}